<svg width="885" height="249" fill="none" xmlns="http://www.w3.org/2000/svg"><path fill-rule="evenodd" clip-rule="evenodd" d="M853.716 153.28c0 .303-.212.549-.472.549-7.323 0-11.227 1.886-17.467 4.901l-1.509.727c-.87.418-1.859.16-2.849-.431-.999-.597-2.09-1.589-3.227-2.829-2.277-2.485-4.826-6.068-7.314-9.818-1.668-2.515-3.32-5.122-4.851-7.537-.752-1.186-1.474-2.327-2.155-3.388-1.036-1.613-1.975-3.041-2.78-4.176-.812-1.147-1.461-1.957-1.918-2.365-12.229-10.897-29.317-2.023-32.244 13.325-.721 3.78-1.499 6.621-2.346 8.703-.845 2.08-1.777 3.448-2.827 4.225-2.143 1.588-4.524.551-6.946-.965-.722-.452-1.456-.952-2.208-1.463-1.852-1.26-3.812-2.592-5.964-3.472-2.98-1.218-6.253-1.522-9.908.608-1.115.65-2.687 2.201-4.448 4.223-1.747 2.006-3.639 4.423-5.388 6.749a352.78 352.78 0 0 0-4.515 6.173l-.004.006c-.584.812-1.062 1.477-1.396 1.927a15.76 15.76 0 0 1-.399.522 2.085 2.085 0 0 1-.145.161l-.001.001c-.016.015-.075.071-.156.107a.422.422 0 0 1-.342.001c-.223-.099-.291-.331-.304-.451-.583-5.442-3.203-11.31-6.893-15.597-3.692-4.289-8.382-6.918-13.091-6.074-7.619 1.366-12.02 6.725-15.688 13.172-1.173 2.062-2.258 4.21-3.35 6.373a250.624 250.624 0 0 1-1.902 3.717c-1.768 3.368-3.667 6.628-6.011 9.359-.29.338-.613.555-.968.633-.353.077-.693.008-1.004-.139-.601-.283-1.165-.889-1.665-1.503-.256-.315-.509-.65-.752-.972l-.003-.003a29.952 29.952 0 0 0-.708-.915 6.537 6.537 0 0 0-.643-.703c-.203-.185-.367-.289-.497-.333-1.769-.589-4.144-.723-6.553-.571-2.402.152-4.795.587-6.582 1.108-2.866.835-6.504 3.032-10.566 5.831-2.205 1.519-4.499 3.19-6.844 4.898a435.807 435.807 0 0 1-6.054 4.356c-4.417 3.103-8.846 5.967-12.887 7.75-4.025 1.775-7.764 2.524-10.751 1.242-2.283-.981-4.299-2.028-6.195-3.043l-.988-.53c-1.535-.825-3.003-1.614-4.504-2.322-3.622-1.708-7.414-2.93-12.626-2.93-2.397 0-3.749.597-4.647 1.336-.454.374-.808.798-1.132 1.239-.141.193-.274.385-.409.58l-.063.092c-.155.223-.314.451-.481.667-.336.435-.72.844-1.225 1.139-.507.296-1.107.459-1.856.451-1.475-.014-3.569-.69-6.798-2.362-4.823-2.498-9.152-6.498-13.429-10.647-.5-.485-.999-.972-1.498-1.459-3.789-3.696-7.58-7.395-11.726-10.246-1.356-.933-3.754-2.969-6.783-5.541a938.513 938.513 0 0 0-3.38-2.861c-4.631-3.897-10.197-8.448-15.764-12.334-5.576-3.892-11.114-7.088-15.696-8.307-2.29-.609-4.301-.714-5.943-.202-1.623.505-2.908 1.618-3.771 3.517-2.601 5.724-2.416 12.026-2.228 18.462.015.503.03 1.006.043 1.51.184 6.901.117 13.891-3.941 19.971-5.651 8.466-9.63 18.94-9.63 29.958 0 2.8-.7 11.1-1.753 18.341-.526 3.621-1.145 7.013-1.818 9.336-.333 1.148-.696 2.1-1.101 2.682-.203.29-.459.551-.779.644-.352.103-.68-.026-.948-.286-2.568-2.495-6.847-3.729-12.023-4.34-4.428-.522-9.426-.581-14.422-.641-.822-.009-1.643-.019-2.461-.031-5.779-.083-11.434-.269-15.976-1.304-4.515-1.029-8.109-2.936-9.521-6.639-.877-2.3-1.243-4.523-1.497-6.544-.058-.464-.111-.914-.161-1.349-.173-1.489-.327-2.815-.643-4.001-.399-1.493-1.042-2.7-2.289-3.597-1.269-.912-3.208-1.536-6.254-1.723-4.316-.264-7.239-1.158-9.223-2.676-2.008-1.536-2.996-3.67-3.521-6.246-.452-2.222-.567-4.819-.694-7.68l-.057-1.256c-.158-3.382-.399-7.152-1.229-11.265-.134-.663-.271-1.644-.426-2.758l-.141-1.005c-.218-1.538-.48-3.243-.825-4.79-.349-1.561-.77-2.898-1.283-3.742-.254-.418-.506-.674-.75-.797-.228-.115-.486-.134-.81.013-7.846 3.556-15.914 6.044-24.007 8.54l-.52.16c-6.394 1.973-10.784 3.04-13.881 3.198-3.115.159-5.026-.597-6.341-2.39-.64-.874-1.116-1.964-1.531-3.23-.416-1.266-.782-2.744-1.19-4.404l-.051-.208c-.81-3.295-1.81-7.369-3.705-12.226-1.639-4.201-3.911-7.08-6.504-9.659-1.161-1.154-2.382-2.244-3.643-3.37l-.456-.408c-1.42-1.269-2.881-2.594-4.332-4.096-1.054-1.092-2.715-2.235-4.669-3.45-.858-.533-1.786-1.087-2.735-1.655a170.818 170.818 0 0 1-3.496-2.127c-2.084-1.314-4.08-2.703-5.599-4.175-1.506-1.459-2.629-3.081-2.811-4.885-.366-3.626-1.598-5.297-3.175-5.901-1.646-.63-3.829-.169-6.205.936-4.726 2.198-9.809 6.746-11.902 8.696-2.551 2.379-5.075 4.698-7.566 6.987-18.244 16.762-34.688 31.871-46.745 56.459l-.09.184c-1.105 2.257-4.943 10.094-8.663 15.141-.958 1.301-1.923 2.436-2.844 3.246-.907.797-1.84 1.34-2.723 1.318-.945-.023-1.695-.684-2.21-1.907-.503-1.195-.815-2.989-.921-5.471-.32-7.45-2.671-15.414-5.71-23.148-2.374-6.042-5.152-11.907-7.684-17.254-.71-1.497-1.4-2.954-2.056-4.363-12.37-26.541-26.082-53.887-47.593-71.387-1.56-1.27-2.956-2.376-4.221-3.38-3.371-2.672-5.821-4.615-8.026-6.97-3.053-3.261-5.64-7.31-9.628-15.155l-.888-1.75c-4.07-8.028-8.419-16.608-13.782-22.524-2.869-3.166-6.007-5.544-9.522-6.667-3.509-1.122-7.428-1.005-11.88.882-1.552.657-3.21 1.99-4.9 3.757-1.683 1.761-3.37 3.926-4.98 6.21-2.626 3.725-5.022 7.734-6.843 10.78-.412.69-.795 1.33-1.145 1.908-13 21.462-29.657 38.197-46.51 55.129-2.714 2.727-5.433 5.459-8.143 8.216-.196.2-.494.176-.665-.052a.616.616 0 0 1 .045-.776c2.718-2.766 5.442-5.503 8.158-8.232 16.858-16.938 33.417-33.576 46.345-54.919.344-.569.723-1.203 1.133-1.889 1.82-3.045 4.243-7.1 6.896-10.863 1.626-2.307 3.347-4.518 5.08-6.33 1.727-1.807 3.492-3.245 5.206-3.972 4.62-1.957 8.738-2.096 12.452-.91 3.708 1.186 6.978 3.681 9.922 6.93 5.463 6.028 9.878 14.738 13.928 22.731.303.598.604 1.192.904 1.78 3.974 7.817 6.505 11.755 9.455 14.906 2.151 2.297 4.522 4.178 7.863 6.828 1.274 1.01 2.689 2.132 4.286 3.431 21.716 17.667 35.52 45.238 47.881 71.763a786.494 786.494 0 0 0 2.043 4.335c2.535 5.352 5.336 11.266 7.726 17.349 3.057 7.778 5.466 15.893 5.795 23.551.104 2.431.407 4.047.826 5.042.408.969.888 1.28 1.383 1.293.558.014 1.276-.343 2.135-1.098.844-.742 1.759-1.812 2.697-3.084 3.657-4.963 7.458-12.722 8.564-14.98l.085-.174c12.154-24.786 28.749-40.031 46.985-56.782 2.49-2.288 5.012-4.604 7.556-6.977 2.09-1.948 7.271-6.594 12.142-8.859 2.423-1.127 4.872-1.715 6.848-.959 2.045.783 3.425 2.933 3.817 6.817.138 1.368 1.019 2.755 2.477 4.168 1.445 1.4 3.372 2.746 5.446 4.054 1.15.725 2.309 1.418 3.45 2.099a179.81 179.81 0 0 1 2.776 1.68c1.95 1.211 3.704 2.408 4.852 3.597 1.423 1.475 2.861 2.778 4.279 4.046l.457.409c1.258 1.123 2.499 2.231 3.68 3.405 2.657 2.642 5.036 5.644 6.751 10.04 1.923 4.932 2.94 9.072 3.75 12.369l.053.217c.411 1.671.766 3.101 1.165 4.314.397 1.211.826 2.17 1.368 2.909 1.049 1.432 2.614 2.158 5.581 2.006 2.985-.152 7.284-1.189 13.681-3.162l.5-.154c8.107-2.5 16.131-4.975 23.927-8.508.536-.243 1.053-.237 1.527.002.459.232.834.659 1.145 1.171.617 1.015 1.072 2.517 1.425 4.101.357 1.598.625 3.344.844 4.886l.146 1.041c.153 1.104.282 2.029.408 2.65.85 4.211 1.094 8.06 1.253 11.457l.057 1.263c.128 2.878.239 5.363.67 7.479.486 2.386 1.368 4.24 3.121 5.582 1.777 1.36 4.503 2.236 8.755 2.497 3.114.191 5.236.833 6.699 1.885 1.485 1.068 2.246 2.525 2.694 4.206.343 1.282.51 2.733.685 4.239.049.423.098.849.152 1.278.25 1.987.601 4.093 1.426 6.257 1.209 3.168 4.366 4.986 8.84 6.006 4.445 1.014 10.016 1.201 15.807 1.284.814.012 1.632.022 2.451.031 4.993.059 10.04.119 14.515.647 5.189.612 9.726 1.864 12.532 4.589.088.085.115.064.116.064.033-.009.128-.062.274-.271.292-.418.612-1.208.94-2.34.648-2.238 1.258-5.559 1.782-9.168 1.049-7.219 1.74-15.448 1.74-18.158 0-11.325 4.087-22.03 9.829-30.633 3.828-5.736 3.927-12.35 3.743-19.262l-.045-1.555c-.189-6.378-.385-12.97 2.338-18.965.99-2.179 2.494-3.483 4.361-4.065 1.848-.575 4.029-.437 6.397.193 4.733 1.259 10.377 4.53 15.971 8.435 5.603 3.911 11.195 8.485 15.831 12.386 1.218 1.025 2.367 2 3.432 2.905 3.008 2.554 5.344 4.538 6.658 5.442 4.218 2.9 8.072 6.661 11.853 10.35l1.495 1.456c4.281 4.153 8.52 8.059 13.209 10.488 3.21 1.662 5.154 2.255 6.423 2.267.622.007 1.07-.127 1.426-.335.359-.209.652-.511.947-.892.148-.191.292-.398.447-.621.152-.22.315-.458.489-.696.352-.479.763-.977 1.305-1.423 1.095-.901 2.653-1.537 5.191-1.537 5.359 0 9.273 1.262 12.98 3.01 1.524.719 3.016 1.521 4.552 2.347l.979.526c1.891 1.011 3.88 2.044 6.128 3.009 2.653 1.139 6.116.515 10.091-1.238 3.957-1.746 8.325-4.566 12.734-7.663 2.002-1.407 4.025-2.88 6.019-4.331 2.366-1.723 4.69-3.415 6.886-4.928 4.058-2.797 7.803-5.073 10.818-5.952 1.848-.538 4.301-.983 6.758-1.138 2.45-.156 4.947-.027 6.864.612.295.098.57.296.819.523.252.23.503.513.746.812.241.295.486.619.726.938l.009.011c.245.325.487.645.729.942.495.609.939 1.054 1.333 1.24.187.088.341.107.477.078.133-.03.292-.117.475-.33 2.264-2.638 4.117-5.809 5.874-9.156.63-1.199 1.25-2.427 1.872-3.659 1.103-2.184 2.214-4.382 3.398-6.464 3.73-6.556 8.328-12.216 16.331-13.651 5.11-.916 10.084 1.948 13.9 6.382 3.567 4.144 6.186 9.728 7.015 15.106.315-.43.733-1.011 1.232-1.705l.006-.009c1.169-1.625 2.774-3.857 4.527-6.188 1.755-2.335 3.664-4.775 5.435-6.808 1.757-2.017 3.424-3.686 4.688-4.423 3.934-2.292 7.481-1.954 10.643-.662 2.242.917 4.33 2.336 6.209 3.614.731.497 1.432.973 2.097 1.39 2.451 1.534 4.354 2.22 5.993 1.006.841-.623 1.675-1.786 2.481-3.768.805-1.979 1.564-4.731 2.278-8.472 3.066-16.081 20.925-25.375 33.736-13.959.553.493 1.262 1.393 2.074 2.538.819 1.156 1.769 2.602 2.807 4.218.688 1.071 1.414 2.218 2.168 3.408 1.527 2.409 3.167 4.997 4.829 7.503 2.484 3.744 4.994 7.266 7.213 9.687 1.111 1.213 2.127 2.125 3.013 2.654.896.535 1.569.628 2.059.393l1.521-.733c6.242-3.016 10.3-4.978 17.814-4.978.26 0 .472.246.472.55Z" fill="#fff"/><path d="M70.562 10.097h2.629c1.594 0 2.314-.925 2.314-2.15 0-1.238-.743-1.937-1.423-1.98V5.89c.63-.187 1.155-.687 1.155-1.686 0-1.182-.703-2.1-2.163-2.1h-2.512v7.994Zm1.035-1.035v-2.56h1.53c.83 0 1.35.625 1.35 1.386 0 .67-.392 1.174-1.387 1.174h-1.493Zm0-3.5V3.13h1.413c.82 0 1.212.504 1.212 1.167 0 .773-.542 1.265-1.239 1.265h-1.386ZM78.147 10.097h4.34V9.058h-3.305V6.611h3.04V5.577h-3.04V3.142h3.265V2.104h-4.3v7.993ZM84.725 10.097h.295c1.56 0 1.936-1.35 2.026-3.919l.107-3.052h2.341v6.97h1.022V2.105h-4.337l-.118 3.754c-.073 2.315-.314 3.161-1.135 3.185l-.2.008v1.046ZM93.437 2.104v7.993h.951l3.487-5.862h.064v5.862h1.034V2.104h-.957l-3.49 5.87h-.064v-5.87h-1.025ZM105.96 10.097h1.263l-2.83-4.38 2.846-3.613h-1.282l-2.67 3.376h-.355V2.104h-1.034v7.993h1.034V6.514h.71l2.318 3.583ZM109.685 2.104v7.993h.952l3.486-5.862h.064v5.862h1.034V2.104h-.957l-3.49 5.87h-.064v-5.87h-1.025ZM118.146 2.104v7.993h.951l3.486-5.862h.064v5.862h1.035V2.104h-.958l-3.49 5.87h-.064v-5.87h-1.024Zm3.426-2.03c0 .394-.188.742-.657.742-.475 0-.653-.352-.653-.742h-.82c0 .878.572 1.483 1.473 1.483.908 0 1.481-.605 1.481-1.483h-.824ZM66.272 23.285h1.035V19.8h3.42v3.485h1.037v-7.993h-1.038v3.473h-3.42v-3.473h-1.034v7.993ZM80.644 19.288c0-2.556-1.313-4.105-3.088-4.105-1.781 0-3.09 1.55-3.09 4.105 0 2.553 1.309 4.106 3.09 4.106 1.775 0 3.088-1.55 3.088-4.105Zm-1.025 0c0 1.948-.884 3.006-2.063 3.006-1.182 0-2.063-1.058-2.063-3.006 0-1.947.881-3.005 2.063-3.005 1.18 0 2.063 1.058 2.063 3.005ZM83.349 23.285h2.629c1.594 0 2.314-.925 2.314-2.15 0-1.238-.743-1.936-1.423-1.98v-.077c.63-.188 1.155-.687 1.155-1.686 0-1.183-.703-2.1-2.163-2.1h-2.512v7.993Zm1.035-1.034v-2.56h1.53c.83 0 1.35.624 1.35 1.385 0 .671-.392 1.175-1.387 1.175h-1.493Zm0-3.501v-2.432h1.413c.82 0 1.212.504 1.212 1.167 0 .773-.542 1.265-1.239 1.265h-1.386ZM95.21 15.292h-4.276v7.993h1.035V16.33h3.242v-1.038ZM103.464 19.288c0-2.556-1.313-4.105-3.088-4.105-1.781 0-3.09 1.55-3.09 4.105 0 2.553 1.309 4.106 3.09 4.106 1.775 0 3.088-1.55 3.088-4.105Zm-1.025 0c0 1.948-.884 3.006-2.063 3.006-1.182 0-2.063-1.058-2.063-3.006 0-1.947.881-3.005 2.063-3.005 1.179 0 2.063 1.058 2.063 3.005ZM106.169 23.285h1.035v-2.81h1.407c1.59 0 2.377-1.12 2.377-2.595 0-1.472-.78-2.588-2.374-2.588h-2.445v7.993Zm1.035-3.833v-3.126h1.299c1.025 0 1.444.648 1.444 1.554 0 .905-.419 1.572-1.43 1.572h-1.313ZM119.574 19.288c0-2.556-1.313-4.105-3.088-4.105-1.781 0-3.091 1.55-3.091 4.105 0 2.553 1.31 4.106 3.091 4.106 1.775 0 3.088-1.55 3.088-4.105Zm-1.025 0c0 1.948-.884 3.006-2.063 3.006-1.182 0-2.063-1.058-2.063-3.006 0-1.947.881-3.005 2.063-3.005 1.179 0 2.063 1.058 2.063 3.005ZM121.76 25.217h.991v-1.932h4.605v1.92h.991v-2.943h-.777v-6.97h-4.229l-.161 3.376c-.104 2.224-.509 3.142-.968 3.594h-.452v2.955Zm1.671-2.955c.392-.73.656-1.904.74-3.594l.107-2.338h2.301v5.932h-3.148ZM6.237 137.282H.946v7.993h1.031v-6.963h3.229v6.963h1.031v-7.993ZM14.931 139.881c-.234-1.709-1.383-2.708-2.833-2.708-1.775 0-3.085 1.549-3.085 4.106 0 2.556 1.303 4.105 3.085 4.105 1.507 0 2.609-1.1 2.833-2.681l-1.045-.004c-.177 1.023-.914 1.585-1.781 1.585-1.176 0-2.064-1.05-2.064-3.005 0-1.94.885-3.006 2.067-3.006.874 0 1.607.574 1.778 1.608h1.045ZM21.646 145.275h1.263l-2.83-4.379 2.847-3.614h-1.283l-2.67 3.376h-.354v-3.376h-1.035v7.993h1.035v-3.583h.71l2.317 3.583ZM30.989 141.279c0-2.557-1.313-4.106-3.088-4.106-1.782 0-3.09 1.549-3.09 4.106 0 2.552 1.308 4.105 3.09 4.105 1.775 0 3.088-1.549 3.088-4.105Zm-1.025 0c0 1.947-.884 3.005-2.063 3.005-1.182 0-2.063-1.058-2.063-3.005 0-1.948.881-3.006 2.063-3.006 1.18 0 2.063 1.058 2.063 3.006ZM33.694 145.275h2.629c1.594 0 2.314-.925 2.314-2.15 0-1.238-.743-1.936-1.423-1.979v-.078c.63-.187 1.155-.687 1.155-1.686 0-1.183-.703-2.1-2.163-2.1h-2.512v7.993Zm1.035-1.034v-2.56h1.53c.83 0 1.35.624 1.35 1.385 0 .671-.392 1.175-1.387 1.175H34.73Zm0-3.501v-2.431h1.413c.82 0 1.212.503 1.212 1.167 0 .772-.542 1.264-1.239 1.264H34.73ZM154.869 167.992h2.137v6.955h1.032v-6.955h2.14v-1.038h-5.309v1.038ZM162.765 174.947h2.629c1.594 0 2.314-.925 2.314-2.15 0-1.237-.743-1.936-1.423-1.979v-.078c.63-.187 1.156-.687 1.156-1.686 0-1.182-.704-2.1-2.164-2.1h-2.512v7.993Zm1.035-1.034v-2.56h1.531c.83 0 1.349.624 1.349 1.385 0 .672-.392 1.175-1.386 1.175H163.8Zm0-3.501v-2.431h1.413c.821 0 1.213.503 1.213 1.167 0 .772-.543 1.264-1.239 1.264H163.8ZM170.35 174.947h4.341v-1.038h-3.306v-2.447h3.041v-1.034h-3.041v-2.436h3.266v-1.038h-4.301v7.993ZM177.448 174.947h1.034v-2.81h1.407c1.591 0 2.378-1.12 2.378-2.595 0-1.471-.78-2.588-2.375-2.588h-2.444v7.993Zm1.034-3.832v-3.126h1.3c1.025 0 1.443.647 1.443 1.553 0 .905-.418 1.573-1.43 1.573h-1.313ZM185.94 170.178v-3.224h-1.039v7.993h2.569c1.527 0 2.401-.991 2.398-2.423.003-1.429-.871-2.346-2.398-2.346h-1.53Zm0 1.015h1.53c.888 0 1.377.593 1.377 1.315 0 .742-.489 1.425-1.377 1.425h-1.53v-2.74ZM247.452 199.126v-7.993h-2.445c-1.591 0-2.375 1.034-2.375 2.506 0 1.073.419 1.889 1.26 2.252l-1.521 3.235h1.179l1.393-3.025h1.474v3.025h1.035Zm-1.035-4.063h-1.313c-1.008 0-1.43-.523-1.43-1.424 0-.906.422-1.472 1.443-1.472h1.3v2.896ZM250.37 199.126h1.035v-2.81h1.406c1.591 0 2.378-1.12 2.378-2.595 0-1.472-.78-2.588-2.374-2.588h-2.445v7.993Zm1.035-3.832v-3.127h1.299c1.025 0 1.444.648 1.444 1.554 0 .905-.419 1.573-1.43 1.573h-1.313ZM263.775 195.13c0-2.557-1.313-4.106-3.088-4.106-1.782 0-3.091 1.549-3.091 4.106 0 2.552 1.309 4.105 3.091 4.105 1.775 0 3.088-1.549 3.088-4.105Zm-1.025 0c0 1.947-.884 3.005-2.063 3.005-1.182 0-2.063-1.058-2.063-3.005 0-1.948.881-3.005 2.063-3.005 1.179 0 2.063 1.057 2.063 3.005ZM272.177 193.732c-.235-1.709-1.384-2.708-2.834-2.708-1.775 0-3.084 1.549-3.084 4.106 0 2.556 1.303 4.105 3.084 4.105 1.507 0 2.609-1.1 2.834-2.681l-1.045-.004c-.178 1.023-.915 1.585-1.782 1.585-1.176 0-2.063-1.05-2.063-3.005 0-1.94.884-3.005 2.066-3.005.874 0 1.608.573 1.779 1.607h1.045ZM274.31 199.126h.295c1.561 0 1.936-1.35 2.026-3.918l.107-3.052h2.341v6.97h1.022v-7.993h-4.337l-.117 3.755c-.074 2.314-.315 3.161-1.136 3.184l-.201.008v1.046ZM283.602 199.126l.63-2.115h2.679l.626 2.115h1.099l-2.469-7.993h-1.195l-2.469 7.993h1.099Zm.931-3.13 1.011-3.411h.054l1.011 3.411h-2.076ZM291.041 199.126h2.629c1.594 0 2.314-.925 2.314-2.15 0-1.237-.744-1.936-1.423-1.979v-.078c.629-.187 1.155-.687 1.155-1.686 0-1.183-.703-2.1-2.164-2.1h-2.511v7.993Zm1.035-1.034v-2.56h1.53c.831 0 1.35.624 1.35 1.385 0 .671-.392 1.175-1.387 1.175h-1.493Zm0-3.501v-2.431h1.413c.82 0 1.212.503 1.212 1.167 0 .772-.542 1.264-1.239 1.264h-1.386ZM298.107 199.126h.295c1.56 0 1.935-1.35 2.026-3.918l.107-3.052h2.341v6.97h1.021v-7.993h-4.337l-.117 3.755c-.074 2.314-.315 3.161-1.135 3.184l-.201.008v1.046ZM307.864 194.357v-3.224h-1.038v7.993h2.568c1.528 0 2.402-.991 2.398-2.424.004-1.428-.87-2.345-2.398-2.345h-1.53Zm0 1.015h1.53c.888 0 1.377.593 1.377 1.315 0 .741-.489 1.424-1.377 1.424h-1.53v-2.739ZM321.155 125.192v7.993h.984v-5.788h.064l2.023 5.776h.817l2.023-5.772h.063v5.784h.985v-7.993h-1.256l-2.183 6.213h-.081l-2.183-6.213h-1.256ZM331.788 133.185l.629-2.115h2.679l.627 2.115h1.098l-2.468-7.993h-1.196l-2.468 7.993h1.099Zm.931-3.13 1.011-3.411h.054l1.011 3.411h-2.076ZM339.226 133.185h1.035V129.7h3.42v3.485h1.038v-7.993h-1.038v3.474h-3.42v-3.474h-1.035v7.993ZM347.302 126.23h2.137v6.955h1.031v-6.955h2.14v-1.038h-5.308v1.038ZM355.684 133.294h.469c1.071 0 1.426-.698 1.728-1.495l2.371-6.607h-1.085l-1.601 4.621-1.799-4.621h-1.098l2.411 5.999-.097.285c-.147.417-.375.757-.887.757h-.412v1.061ZM362.645 133.185h1.035v-2.81h1.407c1.59 0 2.377-1.12 2.377-2.595 0-1.472-.78-2.588-2.374-2.588h-2.445v7.993Zm1.035-3.833v-3.126h1.299c1.025 0 1.444.648 1.444 1.554 0 .905-.419 1.572-1.43 1.572h-1.313ZM376.05 129.189c0-2.557-1.313-4.106-3.088-4.106-1.781 0-3.091 1.549-3.091 4.106 0 2.552 1.31 4.105 3.091 4.105 1.775 0 3.088-1.549 3.088-4.105Zm-1.025 0c0 1.947-.884 3.005-2.063 3.005-1.182 0-2.063-1.058-2.063-3.005 0-1.948.881-3.006 2.063-3.006 1.179 0 2.063 1.058 2.063 3.006ZM378.755 133.185h2.629c1.594 0 2.314-.925 2.314-2.15 0-1.238-.743-1.936-1.423-1.979v-.078c.63-.188 1.155-.687 1.155-1.686 0-1.183-.703-2.1-2.163-2.1h-2.512v7.993Zm1.035-1.034v-2.561h1.53c.831 0 1.35.625 1.35 1.386 0 .671-.392 1.175-1.386 1.175h-1.494Zm0-3.501v-2.432h1.413c.821 0 1.213.504 1.213 1.167 0 .773-.543 1.265-1.24 1.265h-1.386ZM392.298 129.189c0-2.557-1.313-4.106-3.088-4.106-1.781 0-3.091 1.549-3.091 4.106 0 2.552 1.31 4.105 3.091 4.105 1.775 0 3.088-1.549 3.088-4.105Zm-1.025 0c0 1.947-.884 3.005-2.063 3.005-1.182 0-2.063-1.058-2.063-3.005 0-1.948.881-3.006 2.063-3.006 1.179 0 2.063 1.058 2.063 3.006ZM374.739 163.961h1.262l-2.83-4.379 2.847-3.614h-1.283l-2.669 3.376h-.355v-3.376h-1.035v7.993h1.035v-3.583h.71l2.318 3.583ZM384.081 159.965c0-2.557-1.313-4.106-3.088-4.106-1.781 0-3.091 1.549-3.091 4.106 0 2.552 1.31 4.105 3.091 4.105 1.775 0 3.088-1.549 3.088-4.105Zm-1.025 0c0 1.947-.884 3.005-2.063 3.005-1.182 0-2.063-1.058-2.063-3.005 0-1.948.881-3.006 2.063-3.006 1.179 0 2.063 1.058 2.063 3.006ZM386.162 157.006h2.137v6.955h1.032v-6.955h2.14v-1.038h-5.309v1.038ZM394.058 163.961h4.341v-1.038h-3.306v-2.447h3.041v-1.034h-3.041v-2.436h3.265v-1.038h-4.3v7.993ZM400.636 163.961h.295c1.561 0 1.936-1.35 2.026-3.918l.107-3.052h2.341v6.97h1.022v-7.993h-4.337l-.117 3.755c-.074 2.314-.315 3.161-1.136 3.184l-.201.008v1.046ZM410.393 159.192v-3.224h-1.038v7.993h2.569c1.527 0 2.401-.991 2.398-2.424.003-1.428-.871-2.345-2.398-2.345h-1.531Zm0 1.015h1.531c.887 0 1.376.593 1.376 1.315 0 .741-.489 1.424-1.376 1.424h-1.531v-2.739ZM416.998 163.961h1.035v-3.485h3.419v3.485h1.039v-7.993h-1.039v3.474h-3.419v-3.474h-1.035v7.993ZM425.412 155.968v7.993h.951l3.487-5.862h.063v5.862h1.035v-7.993h-.958l-3.489 5.87h-.064v-5.87h-1.025ZM434.01 155.968v2.638c-.004 1.784.924 2.487 2.424 2.487.66 0 1.23-.098 1.722-.262v3.13h1.025v-7.993h-1.025v3.833a6.071 6.071 0 0 1-1.722.257c-.894 0-1.403-.351-1.403-1.452v-2.638h-1.021ZM445.136 159.461h-3.041v1.011h3.041v-1.011ZM450.283 155.968h-.965c-.036.219-.559 1.23-1.56 1.23v.991c.777 0 1.316-.359 1.43-.593h.057v6.365h1.038v-7.993ZM498.959 198.828h-4.277v7.992h1.035v-6.954h3.242v-1.038ZM501.021 206.82h.294c1.561 0 1.936-1.35 2.027-3.918l.107-3.052h2.341v6.97h1.021v-7.992h-4.337l-.117 3.754c-.074 2.314-.315 3.161-1.135 3.185l-.201.008v1.045ZM510.312 206.82l.63-2.115h2.679l.626 2.115h1.099l-2.468-7.992h-1.196l-2.468 7.992h1.098Zm.931-3.13 1.012-3.411h.053l1.012 3.411h-2.077ZM520.045 206.93c1.4 0 2.428-.976 2.425-2.303.003-1.011-.523-1.737-1.434-1.901v-.062c.717-.215 1.183-.87 1.179-1.768.004-1.175-.824-2.178-2.143-2.178-1.259 0-2.271.886-2.304 2.186h1.001c.024-.734.616-1.179 1.289-1.179.7 0 1.159.496 1.156 1.233.003.773-.529 1.281-1.289 1.281h-.58v.983h.58c.951 0 1.5.562 1.5 1.366 0 .777-.58 1.304-1.387 1.304-.743 0-1.322-.445-1.363-1.156h-1.051c.043 1.304 1.035 2.194 2.421 2.194ZM531.202 202.824c0-2.556-1.313-4.106-3.088-4.106-1.781 0-3.091 1.55-3.091 4.106 0 2.552 1.31 4.106 3.091 4.106 1.775 0 3.088-1.55 3.088-4.106Zm-1.025 0c0 1.947-.884 3.005-2.063 3.005-1.182 0-2.063-1.058-2.063-3.005 0-1.947.881-3.005 2.063-3.005 1.179 0 2.063 1.058 2.063 3.005ZM533.907 206.82h2.629c1.594 0 2.314-.924 2.314-2.15 0-1.237-.743-1.936-1.423-1.979v-.078c.629-.187 1.155-.687 1.155-1.686 0-1.182-.703-2.099-2.163-2.099h-2.512v7.992Zm1.035-1.034v-2.56h1.53c.831 0 1.35.624 1.35 1.385 0 .672-.392 1.175-1.387 1.175h-1.493Zm0-3.501v-2.431h1.413c.821 0 1.212.503 1.212 1.167 0 .773-.542 1.264-1.239 1.264h-1.386ZM502.007 127.966h-5.292v7.993h1.032v-6.963h3.228v6.963h1.032v-7.993ZM505.004 135.959h4.34v-1.038h-3.306v-2.447h3.041v-1.034h-3.041v-2.436h3.266v-1.038h-4.3v7.993ZM512.101 135.959h1.035v-2.81h1.406c1.591 0 2.378-1.12 2.378-2.595 0-1.472-.78-2.588-2.374-2.588h-2.445v7.993Zm1.035-3.833V129h1.299c1.025 0 1.443.648 1.443 1.554 0 .905-.418 1.572-1.43 1.572h-1.312ZM519.548 127.966v7.993h.984v-5.788h.064l2.023 5.776h.817l2.023-5.772h.064v5.784h.984v-7.993h-1.256l-2.183 6.213h-.081l-2.183-6.213h-1.256ZM530.646 131.19v-3.224h-1.038v7.993h2.569c1.527 0 2.401-.991 2.398-2.424.003-1.428-.871-2.345-2.398-2.345h-1.531Zm0 1.015h1.531c.887 0 1.376.593 1.376 1.315 0 .741-.489 1.424-1.376 1.424h-1.531v-2.739ZM565.075 170.192h2.137v6.955h1.031v-6.955h2.14v-1.038h-5.308v1.038ZM574.006 169.154h-1.035v7.993h1.035v-3.396h1.202c.188 2.194 1.427 3.505 3.064 3.505 1.775 0 3.088-1.549 3.088-4.106 0-2.556-1.313-4.105-3.088-4.105-1.684 0-2.947 1.385-3.081 3.696h-1.185v-3.587Zm6.329 3.996c0 1.948-.884 3.006-2.063 3.006-1.182 0-2.063-1.058-2.063-3.006 0-1.947.881-3.005 2.063-3.005 1.179 0 2.063 1.058 2.063 3.005ZM583.89 169.154v7.993h.985v-5.788h.063l2.023 5.776h.817l2.023-5.772h.064v5.784h.984v-7.993h-1.256l-2.183 6.213h-.081l-2.183-6.213h-1.256ZM593.944 177.147h4.34v-1.038h-3.306v-2.447h3.041v-1.035h-3.041v-2.435h3.266v-1.038h-4.3v7.993ZM601.041 177.147h1.034v-3.485h3.42v3.485h1.038v-7.993h-1.038v3.473h-3.42v-3.473h-1.034v7.993ZM610.5 172.378v-3.224h-1.039v7.993h2.569c1.527 0 2.401-.991 2.398-2.424.003-1.428-.871-2.345-2.398-2.345h-1.53Zm0 1.014h1.53c.888 0 1.377.594 1.377 1.316 0 .741-.489 1.424-1.377 1.424h-1.53v-2.74ZM658.455 197.327c0-2.556-1.313-4.106-3.088-4.106-1.782 0-3.091 1.55-3.091 4.106 0 2.553 1.309 4.106 3.091 4.106 1.775 0 3.088-1.549 3.088-4.106Zm-1.025 0c0 1.948-.884 3.005-2.063 3.005-1.182 0-2.063-1.057-2.063-3.005 0-1.947.881-3.005 2.063-3.005 1.179 0 2.063 1.058 2.063 3.005ZM661.16 193.331v7.993h.984v-5.788h.064l2.023 5.776h.817l2.023-5.772h.063v5.784h.985v-7.993h-1.256l-2.183 6.213h-.081l-2.183-6.213h-1.256ZM676.91 195.93c-.235-1.709-1.383-2.709-2.833-2.709-1.775 0-3.085 1.55-3.085 4.106 0 2.557 1.303 4.106 3.085 4.106 1.507 0 2.609-1.101 2.833-2.681l-1.045-.004c-.177 1.022-.914 1.584-1.782 1.584-1.175 0-2.063-1.05-2.063-3.005 0-1.94.884-3.005 2.067-3.005.874 0 1.607.574 1.778 1.608h1.045ZM683.625 201.324h1.263l-2.83-4.379 2.847-3.614h-1.283l-2.669 3.376h-.355v-3.376h-1.035v7.993h1.035v-3.583h.71l2.317 3.583ZM760.237 114.502h1.263l-2.83-4.379 2.847-3.614h-1.283l-2.669 3.376h-.355v-3.376h-1.035v7.993h1.035v-3.582h.71l2.317 3.582ZM763.963 114.502h1.035v-2.81h1.406c1.591 0 2.378-1.12 2.378-2.595 0-1.471-.78-2.588-2.374-2.588h-2.445v7.993Zm1.035-3.832v-3.126h1.299c1.025 0 1.444.648 1.444 1.553 0 .905-.419 1.573-1.43 1.573h-1.313ZM771.262 114.502l.629-2.115h2.68l.626 2.115h1.098l-2.468-7.993h-1.195l-2.469 7.993h1.099Zm.931-3.13 1.011-3.411h.054l1.011 3.411h-2.076ZM784.075 109.109c-.235-1.71-1.383-2.709-2.833-2.709-1.775 0-3.085 1.55-3.085 4.106s1.303 4.106 3.085 4.106c1.507 0 2.609-1.101 2.833-2.682l-1.045-.003c-.178 1.022-.914 1.584-1.782 1.584-1.175 0-2.063-1.05-2.063-3.005 0-1.94.884-3.005 2.067-3.005.874 0 1.607.573 1.778 1.608h1.045ZM786.728 114.502h1.035v-3.485h3.419v3.485h1.038v-7.993h-1.038v3.474h-3.419v-3.474h-1.035v7.993ZM801.1 110.506c0-2.556-1.313-4.106-3.088-4.106-1.782 0-3.091 1.55-3.091 4.106 0 2.552 1.309 4.106 3.091 4.106 1.775 0 3.088-1.55 3.088-4.106Zm-1.025 0c0 1.947-.884 3.005-2.063 3.005-1.182 0-2.063-1.058-2.063-3.005 0-1.948.881-3.005 2.063-3.005 1.179 0 2.063 1.057 2.063 3.005ZM808.38 114.502v-7.993h-2.445c-1.591 0-2.375 1.035-2.375 2.506 0 1.073.419 1.889 1.26 2.252l-1.521 3.235h1.179l1.393-3.024h1.474v3.024h1.035Zm-1.035-4.062h-1.313c-1.008 0-1.43-.523-1.43-1.425 0-.905.422-1.471 1.443-1.471h1.3v2.896ZM811.298 114.502h1.035v-2.81h1.406c1.591 0 2.378-1.12 2.378-2.595 0-1.471-.78-2.588-2.374-2.588h-2.445v7.993Zm1.035-3.832v-3.126h1.299c1.025 0 1.444.648 1.444 1.553 0 .905-.419 1.573-1.43 1.573h-1.313ZM824.442 109.109c-.235-1.71-1.383-2.709-2.834-2.709-1.775 0-3.084 1.55-3.084 4.106s1.303 4.106 3.084 4.106c1.507 0 2.609-1.101 2.834-2.682l-1.045-.003c-.178 1.022-.914 1.584-1.782 1.584-1.175 0-2.063-1.05-2.063-3.005 0-1.94.884-3.005 2.066-3.005.875 0 1.608.573 1.779 1.608h1.045ZM831.157 114.502h1.263l-2.83-4.379 2.846-3.614h-1.282l-2.67 3.376h-.355v-3.376h-1.034v7.993h1.034v-3.582h.71l2.318 3.582ZM826.738 177.256h.469c1.072 0 1.427-.698 1.728-1.495l2.371-6.607h-1.085l-1.6 4.621-1.799-4.621h-1.098l2.411 5.999-.097.284c-.148.418-.375.758-.888.758h-.412v1.061ZM833.181 177.147h.294c1.561 0 1.936-1.35 2.027-3.919l.107-3.052h2.341v6.971h1.021v-7.993h-4.337l-.117 3.754c-.074 2.315-.315 3.162-1.135 3.185l-.201.008v1.046ZM842.472 177.147l.63-2.115h2.679l.626 2.115h1.099l-2.468-7.993h-1.196l-2.468 7.993h1.098Zm.931-3.13 1.012-3.411h.053l1.012 3.411h-2.077ZM849.911 177.147h1.035v-3.485h3.419v3.485h1.038v-7.993h-1.038v3.473h-3.419v-3.473h-1.035v7.993ZM861.276 172.647h-3.041v1.011h3.041v-1.011ZM863.992 177.256h.469c1.072 0 1.427-.698 1.728-1.495l2.371-6.607h-1.085l-1.601 4.621-1.798-4.621h-1.098l2.411 5.999-.097.284c-.148.418-.375.758-.888.758h-.412v1.061ZM870.435 179.079h.991v-1.932h4.605v1.92h.991v-2.943h-.777v-6.97h-4.23l-.16 3.376c-.104 2.224-.509 3.142-.968 3.594h-.452v2.955Zm1.671-2.955c.392-.729.656-1.904.74-3.594l.107-2.338h2.301v5.932h-3.148ZM879.353 174.61c.13 1.514.981 2.646 2.635 2.646 1.655 0 2.713-1.44 2.713-3.68v-.831c0-2.241-1.071-3.7-2.769-3.7-1.615 0-2.449 1.147-2.583 2.693h1.055c.108-1.039.526-1.655 1.528-1.655 1.101 0 1.718 1.038 1.721 2.654h-2.529v1.022h2.526c-.044 1.409-.573 2.475-1.662 2.475-1.028 0-1.466-.57-1.584-1.624h-1.051Z" fill="#fff"/><path d="M101.362 36.84c0 2.12-1.475 3.84-3.294 3.84-1.82 0-3.294-1.72-3.294-3.84s1.475-3.838 3.294-3.838c1.82 0 3.294 1.719 3.294 3.839Z" fill="#272722"/><path fill-rule="evenodd" clip-rule="evenodd" d="M98.068 39.58c1.298 0 2.351-1.226 2.351-2.74 0-1.512-1.053-2.739-2.351-2.739-1.299 0-2.351 1.227-2.351 2.74 0 1.513 1.052 2.74 2.35 2.74Zm0 1.1c1.82 0 3.294-1.72 3.294-3.84s-1.475-3.838-3.294-3.838c-1.82 0-3.294 1.719-3.294 3.839s1.475 3.839 3.294 3.839Z" fill="#fff"/><path d="M20.482 126.036c0 2.12-1.475 3.838-3.294 3.838-1.82 0-3.294-1.718-3.294-3.838 0-2.121 1.474-3.839 3.294-3.839 1.819 0 3.294 1.718 3.294 3.839Z" fill="#131313"/><path fill-rule="evenodd" clip-rule="evenodd" d="M17.188 128.775c1.298 0 2.35-1.226 2.35-2.739 0-1.514-1.052-2.74-2.35-2.74-1.299 0-2.351 1.226-2.351 2.74 0 1.513 1.052 2.739 2.35 2.739Zm0 1.099c1.819 0 3.294-1.718 3.294-3.838 0-2.121-1.475-3.839-3.294-3.839-1.82 0-3.294 1.718-3.294 3.839 0 2.12 1.474 3.838 3.294 3.838Z" fill="#fff"/><path d="M203.477 171.198c0 2.121-1.475 3.839-3.294 3.839s-3.294-1.718-3.294-3.839c0-2.12 1.475-3.838 3.294-3.838s3.294 1.718 3.294 3.838Z" fill="#4D5648"/><path fill-rule="evenodd" clip-rule="evenodd" d="M200.183 173.938c1.298 0 2.351-1.226 2.351-2.74 0-1.513-1.053-2.739-2.351-2.739-1.299 0-2.351 1.226-2.351 2.739 0 1.514 1.052 2.74 2.351 2.74Zm0 1.099c1.819 0 3.294-1.718 3.294-3.839 0-2.12-1.475-3.838-3.294-3.838s-3.294 1.718-3.294 3.838c0 2.121 1.475 3.839 3.294 3.839Z" fill="#fff"/><path d="M233.95 195.194c0 2.12-1.475 3.839-3.295 3.839-1.819 0-3.294-1.719-3.294-3.839s1.475-3.839 3.294-3.839c1.82 0 3.295 1.719 3.295 3.839Z" fill="#47443E"/><path fill-rule="evenodd" clip-rule="evenodd" d="M230.655 197.934c1.299 0 2.351-1.227 2.351-2.74 0-1.513-1.052-2.74-2.351-2.74-1.298 0-2.351 1.227-2.351 2.74 0 1.513 1.053 2.74 2.351 2.74Zm0 1.099c1.82 0 3.295-1.719 3.295-3.839s-1.475-3.839-3.295-3.839c-1.819 0-3.294 1.719-3.294 3.839s1.475 3.839 3.294 3.839Z" fill="#fff"/><path d="M317.126 139.53c0 2.12-1.474 3.839-3.294 3.839-1.819 0-3.294-1.719-3.294-3.839s1.475-3.839 3.294-3.839c1.82 0 3.294 1.719 3.294 3.839Z" fill="#93A47C"/><path fill-rule="evenodd" clip-rule="evenodd" d="M313.832 142.27c1.299 0 2.351-1.227 2.351-2.74 0-1.513-1.052-2.74-2.351-2.74-1.298 0-2.351 1.227-2.351 2.74 0 1.513 1.053 2.74 2.351 2.74Zm0 1.099c1.82 0 3.294-1.719 3.294-3.839s-1.474-3.839-3.294-3.839c-1.819 0-3.294 1.719-3.294 3.839s1.475 3.839 3.294 3.839Z" fill="#fff"/><path d="M390.422 176.959c0 2.12-1.475 3.839-3.294 3.839s-3.294-1.719-3.294-3.839 1.475-3.839 3.294-3.839 3.294 1.719 3.294 3.839Z" fill="#738F8C"/><path fill-rule="evenodd" clip-rule="evenodd" d="M387.128 179.699c1.298 0 2.351-1.227 2.351-2.74 0-1.513-1.053-2.74-2.351-2.74-1.299 0-2.351 1.227-2.351 2.74 0 1.513 1.052 2.74 2.351 2.74Zm0 1.099c1.819 0 3.294-1.719 3.294-3.839s-1.475-3.839-3.294-3.839-3.294 1.719-3.294 3.839 1.475 3.839 3.294 3.839Z" fill="#fff"/><path d="M486.773 202.872c0 2.12-1.475 3.839-3.294 3.839s-3.294-1.719-3.294-3.839 1.475-3.839 3.294-3.839 3.294 1.719 3.294 3.839Z" fill="#789186"/><path fill-rule="evenodd" clip-rule="evenodd" d="M483.479 205.612c1.298 0 2.351-1.227 2.351-2.74 0-1.513-1.053-2.74-2.351-2.74s-2.351 1.227-2.351 2.74c0 1.513 1.053 2.74 2.351 2.74Zm0 1.099c1.819 0 3.294-1.719 3.294-3.839s-1.475-3.839-3.294-3.839-3.294 1.719-3.294 3.839 1.475 3.839 3.294 3.839Z" fill="#fff"/><path d="M518.067 146.251c0 2.12-1.475 3.839-3.294 3.839s-3.294-1.719-3.294-3.839 1.475-3.839 3.294-3.839 3.294 1.719 3.294 3.839Z" fill="#8CBABB"/><path fill-rule="evenodd" clip-rule="evenodd" d="M514.773 148.991c1.298 0 2.351-1.227 2.351-2.74 0-1.513-1.053-2.74-2.351-2.74-1.299 0-2.351 1.227-2.351 2.74 0 1.513 1.052 2.74 2.351 2.74Zm0 1.099c1.819 0 3.294-1.719 3.294-3.839s-1.475-3.839-3.294-3.839-3.294 1.719-3.294 3.839 1.475 3.839 3.294 3.839Z" fill="#fff"/><path d="M571.595 189.437c0 2.12-1.475 3.839-3.294 3.839s-3.294-1.719-3.294-3.839 1.475-3.839 3.294-3.839 3.294 1.719 3.294 3.839Z" fill="#414847"/><path fill-rule="evenodd" clip-rule="evenodd" d="M568.301 192.176c1.298 0 2.351-1.226 2.351-2.739s-1.053-2.74-2.351-2.74-2.351 1.227-2.351 2.74c0 1.513 1.053 2.739 2.351 2.739Zm0 1.1c1.819 0 3.294-1.719 3.294-3.839s-1.475-3.839-3.294-3.839-3.294 1.719-3.294 3.839 1.475 3.839 3.294 3.839Z" fill="#fff"/><path d="M671.246 175.039c0 2.12-1.475 3.838-3.294 3.838s-3.294-1.718-3.294-3.838c0-2.121 1.475-3.839 3.294-3.839s3.294 1.718 3.294 3.839Z" fill="#577379"/><path fill-rule="evenodd" clip-rule="evenodd" d="M667.952 177.778c1.299 0 2.351-1.226 2.351-2.739 0-1.514-1.052-2.74-2.351-2.74-1.298 0-2.351 1.226-2.351 2.74 0 1.513 1.053 2.739 2.351 2.739Zm0 1.099c1.819 0 3.294-1.718 3.294-3.838 0-2.121-1.475-3.839-3.294-3.839s-3.294 1.718-3.294 3.839c0 2.12 1.475 3.838 3.294 3.838Z" fill="#fff"/><path d="M798.497 123.215c0 2.12-1.474 3.839-3.294 3.839-1.819 0-3.294-1.719-3.294-3.839s1.475-3.839 3.294-3.839c1.82 0 3.294 1.719 3.294 3.839Z" fill="#3E403A"/><path fill-rule="evenodd" clip-rule="evenodd" d="M795.203 125.955c1.299 0 2.351-1.227 2.351-2.74 0-1.513-1.052-2.74-2.351-2.74-1.298 0-2.351 1.227-2.351 2.74 0 1.513 1.053 2.74 2.351 2.74Zm0 1.099c1.82 0 3.294-1.719 3.294-3.839s-1.474-3.839-3.294-3.839c-1.819 0-3.294 1.719-3.294 3.839s1.475 3.839 3.294 3.839Z" fill="#fff"/><path d="M857.948 153.51c0 2.12-1.475 3.839-3.294 3.839-1.82 0-3.294-1.719-3.294-3.839s1.474-3.839 3.294-3.839c1.819 0 3.294 1.719 3.294 3.839Z" fill="#181A19"/><path fill-rule="evenodd" clip-rule="evenodd" d="M854.654 156.249c1.298 0 2.351-1.226 2.351-2.739s-1.053-2.74-2.351-2.74c-1.299 0-2.351 1.227-2.351 2.74 0 1.513 1.052 2.739 2.351 2.739Zm0 1.1c1.819 0 3.294-1.719 3.294-3.839s-1.475-3.839-3.294-3.839c-1.82 0-3.294 1.719-3.294 3.839s1.474 3.839 3.294 3.839Z" fill="#fff"/></svg>